<svg xmlns="http://www.w3.org/2000/svg" viewBox="0 0 772.18 895.35"><defs><style>.cls-1{fill:#6e235e;}.cls-2{fill:#552e91;}.cls-3{fill:#4b2b63;}.cls-4{fill:#019680;}.cls-5{fill:#faa26a;}.cls-6{fill:#fedc78;}.cls-7{fill:#fcd494;}.cls-8{fill:#8f691a;}.cls-9{fill:#a34698;}.cls-10{fill:#2f004e;}.cls-11{fill:#4d0049;}.cls-12{fill:#021501;}.cls-13{fill:#b1a5cb;}.cls-14{fill:#beaac4;}.cls-15{fill:#0c0c03;}.cls-16{fill:#cdb531;}.cls-17{fill:#8f681c;}.cls-18{fill:#9d489d;}.cls-19{fill:#b9a6c9;}.cls-20{fill:#d9c2dd;}.cls-21{fill:#f0e8e1;}.cls-22{fill:#bba6c9;}.cls-23{fill:#812b05;}.cls-24{fill:#005841;}.cls-25{fill:#86ca96;}.cls-26{fill:#016b8f;}.cls-27{fill:#fbb5b9;}.cls-28{fill:#055a5a;}.cls-29{fill:#140d04;}.cls-30{fill:#e0a230;}.cls-31{fill:#0d0a0b;}.cls-32{fill:#f2e8e6;}.cls-33{fill:#f1a215;}.cls-34{fill:#00583e;}.cls-35{fill:#430353;}.cls-36{fill:#3f0458;}.cls-37{fill:#a00048;}.cls-38{fill:#915f88;}.cls-39{fill:#ac5915;}.cls-40{fill:#b6d9f8;}.cls-41{fill:#005b63;}.cls-42{fill:#2a2a29;}.cls-43{fill:#03967f;}.cls-44{fill:#fdfdfb;}.cls-45{fill:#140910;}</style></defs><g id="FACE1"><polygon class="cls-1" points="635.78 761.95 492.66 816.01 475.49 822.5 515.89 713.28 555.3 618.94 642.5 586.79 657.8 585.47 660.33 646.68 639.96 700.95 635.78 761.95"/></g><g id="FACE2"><path class="cls-2" d="M676.13,1023.9l-16.28,6.15L451.27,1102.9,441.78,1049s81.89-64,84.53-64.44,93.36-73.32,93.36-74.64,75.52-150.61,75.52-150.61l35.67-51.52,20-12.77,7.27,68.25-4,66.94Z" transform="translate(-184.37 -207.55)"/></g><g id="FACE3"><polygon class="cls-3" points="266.9 895.35 189.91 872.15 191.68 861.54 257.41 841.47 266.9 895.35"/></g><g id="FACE4"><path class="cls-4" d="M376.05,1069.09l-1.77-45.33,9.61-17.63,43.72-5.91s30.6-15.89,31.71-16,18.21-14.82,18.21-14.82l-1.82-10.74-4.66-191.1,66.71-77,96.44-2.31,107.89,16.07-16.51,39.14-108.17,251L441.78,1049Z" transform="translate(-184.37 -207.55)"/></g><g id="FACE5"><polygon class="cls-5" points="189.91 872.15 161.92 864.47 144.08 778.27 174.88 778.27 144.5 758.45 144.08 729.55 261.99 762 246.22 798 189.91 816.21 191.68 861.54 189.91 872.15"/></g><g id="FACE6"><polygon class="cls-6" points="161.92 864.47 118.4 852.83 103.38 815.75 118.07 772.32 92.15 718.57 98.75 703.05 108.91 693.05 137.72 693.05 176.04 704.62 185.04 716.59 177.52 727.24 144.08 729.55 144.5 758.45 174.88 778.27 144.08 778.27 161.92 864.47"/></g><g id="FACE7"><path class="cls-7" d="M328.45,937.1l-51.94-11,6.61-15.52,4.9-11.54,17.7-.41s24,1.24,24.24,1.29S365.83,912,365.83,912l5.53,13.51s-7.57,10.16-8,10.16S328.45,937.1,328.45,937.1Z" transform="translate(-184.37 -207.55)"/></g><g id="FACE8"><polygon class="cls-8" points="144.08 729.55 179.23 721.02 181.29 720 243.34 675.16 276.92 675.16 299.82 676.65 298.32 711.63 298.24 781.73 246.22 798 261.99 762 144.08 729.55"/></g><g id="FACE9"><path class="cls-9" d="M277.45,814.82v7.87l5.45,23.39,8.64,40.68s30.33,2.53,30.33,1.76.91-21.91,1.09-22.62-4.72-45.74-4.72-45.74l-3.91-6.06-34.68-2.86Z" transform="translate(-184.37 -207.55)"/></g><g id="FACE10"><path class="cls-10" d="M277.45,814.82l21.85-16.9,47.15-5,17.26-27.75,4.54-2.14,11.14,4.45L401,795.08s-2.48,21-3.64,21.72-51.85,12.14-51.85,12.14l-33-10.49Z" transform="translate(-184.37 -207.55)"/></g><g id="FACE11"><path class="cls-11" d="M336.21,802.76l14.62-3,18-34.93-2.07-5.28s-18.25-21.3-18.49-21.39-53.92-30-53.92-30l-8.92-2.56s3.55,54.83,4,55.9,5,17.09,6.11,17.34,36.67-3.55,36.67-3.55L331.42,801Z" transform="translate(-184.37 -207.55)"/></g><g id="FACE12"><path class="cls-12" d="M336.21,802.76l-58.76,12.06-22.32-12.06s-1.19-17.17-1.41-17.45,6.34-13.26,6.94-13.26,13.87.38,15,.82,31.15,2.81,31.15,2.81l28.46,7.6.91.11Z" transform="translate(-184.37 -207.55)"/></g><g id="FACE13"><polygon class="cls-13" points="155.31 547.73 167.12 559.38 151.84 575.84 150.85 577.05 127.16 582.99 85.62 570.69 70.76 595.21 68.53 595.21 53.09 586.62 53.09 574.73 77.37 533.12 97.27 501.41 103.95 502.32 115.1 565.32 155.31 547.73"/></g><g id="FACE14"><polygon class="cls-14" points="103.95 502.32 53.09 586.62 43.1 556.57 128.31 423.72 128.31 375.17 151.35 375.17 147.06 454.51 103.95 502.32"/></g><g id="MUSTACHE"><polygon class="cls-15" points="267.52 656.97 304.68 656.97 309.3 702.22 261.99 744 205.76 719.23 189.91 730.46 180.6 722.87 167.94 711.47 114.61 695.12 83.72 710.33 58.29 675.16 30.88 663.91 28.9 633.19 37.82 624.44 0 563.84 11.06 553.93 29.56 593.73 43.76 586.62 43.1 617.17 71.01 629.39 104.24 608.42 110.11 675.16 128.48 675.16 128.15 610.9 184.46 617.01 179.17 641.45 224.92 641.45 243.34 675.16 233.5 713.62 266.53 718.9 284.53 695.12 267.52 656.97"/></g><g id="FACE15"><polygon class="cls-16" points="209.28 592.18 179.34 609.96 179.34 616.24 179.34 616.45 184.25 616.99 179.17 641.45 224.92 641.45 243.34 675.16 275.63 675.16 267.52 656.97 289.05 656.97 298.35 656.97 298.79 573.25 314.53 554.81 212.86 501.41 184.46 521.95 184.46 557.31 209.28 592.18"/></g><g id="FACE16"><polygon class="cls-17" points="557.73 496.84 367.27 493.49 367.27 454.35 491.94 450.72 557.73 496.84"/></g><g id="FACE17"><polygon class="cls-18" points="491.94 450.72 367.27 454.35 367.27 412.73 341.83 404.97 282.72 366.66 282.72 286.57 366.94 218.37 455.28 218.37 417.8 304.4 491.94 450.72"/></g><g id="FACE18"><polygon class="cls-19" points="455.28 218.37 491.94 160.4 371.73 159.74 151.6 322.73 151.35 375.17 179.17 375.17 282.72 286.57 366.94 218.37 455.28 218.37"/><polyline class="cls-19" points="179.17 375.17 179.56 375.17 186.5 369.2 282.72 286.57 276.3 286.67 179.17 374.94"/></g><g id="FACE19"><polygon class="cls-20" points="491.94 160.4 457.76 94.02 372.22 94.02 151.35 258.33 151.6 322.73 371.73 159.74 491.94 160.4"/></g><g id="FACE20"><polygon class="cls-21" points="372.22 94.02 208.9 94.02 118.4 176.59 83.56 310.51 128.31 375.17 151.35 375.17 151.35 258.33 372.22 94.02"/></g><g id="HAIR"><polygon class="cls-15" points="175.92 124.11 175.92 94.02 227.89 40.95 367.49 0 572.48 16.07 738.05 120.88 772.18 307.38 764.92 437.94 701.5 571.38 683.89 636.55 660.33 653.28 641.62 702.16 612.55 650.2 653.5 589.43 710.09 501.36 713.84 443.89 675.74 408 632.59 409.98 572.26 443.89 557.73 496.84 491.94 450.72 417.8 304.4 455.28 218.37 491.94 160.4 457.76 94.02 208.9 94.02 175.92 124.11"/></g><g id="EAR1"><polygon class="cls-22" points="533.73 613.87 569.78 622.68 605.73 622.68 652.62 590.75 710.09 501.36 713.84 443.89 675.74 408 632.59 409.98 572.26 443.89 557.73 496.84 533.73 613.87"/></g><g id="EAR2"><polygon class="cls-23" points="611.84 570.11 642.38 564.66 672.77 528.99 667.98 460.46 622.9 463.6 618.11 473.78 606.38 496.84 613.16 437.83 667.49 417.85 707.45 463.43 682.02 528.33 642.55 579.69 611.84 570.11"/></g><g id="EAR3"><path class="cls-24" d="M802.48,681.33,838,709v32.37H826.42L824.28,719h-13l-2.15,43.59-15-12.38-8.43,13.54-43.54,17.83s-.27-17.83,0-18.16,22.57-64.07,22.57-64.07l18.66,19.81,7.43-14.81Z" transform="translate(-184.37 -207.55)"/></g><g id="HEAD21"><path class="cls-25" d="M523.56,661.9h28.07V701L498.9,762.36,397.23,709l1.65-50.69h13.21s7.43,13,8.26,13l35.67-.16v6.93H441.78v11.56l61.14-.33Z" transform="translate(-184.37 -207.55)"/></g><g id="HEAD22"><polygon class="cls-26" points="151.35 375.17 179.56 375.17 161.5 457.21 212.86 501.41 184.46 521.95 184.46 557.31 103.95 502.32 147.06 454.51 151.35 375.17"/></g><g id="HEAD23"><polygon class="cls-27" points="128.31 423.72 78.76 500.98 106.02 450.72 105.91 419.34 110.75 423.63 128.31 423.72"/></g><g id="HEAD24"><polygon class="cls-28" points="110.75 423.63 122.31 411.74 122.31 395.78 96.55 387.41 92.59 387.41 92.59 374.75 109.65 366.17 128.31 389.39 128.31 423.72 110.75 423.63"/></g><g id="HEAD25"><polygon class="cls-29" points="128.31 389.39 128.31 375.17 108.89 347.11 83.56 347.11 92.59 374.75 109.65 366.17 128.31 389.39"/></g><g id="HEAD26"><polygon class="cls-30" points="108.89 347.11 83.56 310.51 70.46 310.51 62.2 336 92.59 387.41 92.59 374.75 83.56 347.11 108.89 347.11"/></g><g id="HEAD27"><polygon class="cls-31" points="92.59 387.41 78.76 387.41 78.76 391.43 96.11 391.43 96.11 402.5 98.09 402.5 100.62 394.94 105.94 394.95 105.94 398.92 116.2 399.03 110.45 410.26 122.31 404.04 122.31 395.78 96.55 387.41 92.59 387.41"/></g><g id="HEAD28"><polygon class="cls-32" points="98.09 402.5 100.62 394.94 105.94 394.95 105.94 398.92 116.2 399.03 110.45 410.26 98.09 402.5"/></g><g id="HEAD29"><polygon class="cls-33" points="98.09 402.5 97.22 402.6 97.22 411.36 105.91 419.34 110.75 423.63 122.31 411.74 122.31 404.04 110.45 410.26 98.09 402.5"/></g><g id="HEAD30"><polygon class="cls-25" points="282.72 286.57 179.56 375.17 252 375.17 261.74 366.17 282.72 366.66 282.72 286.57"/></g><g id="HEAD31"><polygon class="cls-34" points="282.72 366.66 341.83 404.97 260.75 382.68 214.84 382.84 232.84 392.59 219.3 396.72 218.97 407.62 179.17 375.17 252 375.17 261.74 366.17 282.72 366.66"/><polyline class="cls-26" points="179.5 375.43 179.56 375.17 179.17 375.17 179.5 375.43"/></g><g id="HEAD32"><polygon class="cls-35" points="214.84 382.84 260.75 382.68 341.83 404.97 367.27 412.73 367.27 454.35 339.19 454.35 339.08 442.49 281.06 394.71 256.82 394.62 256.79 404.42 232.84 392.59 214.84 382.84"/></g><g id="HEAD33"><polygon class="cls-36" points="179.56 375.17 218.97 407.62 218.97 415.95 222.15 415.95 197.34 440.15 197.26 453.98 209.06 444.11 214.51 450.72 212.86 501.41 161.5 457.21 179.56 375.17"/></g><g id="HEAD34"><polygon class="cls-37" points="232.84 392.59 256.79 404.42 314.53 432.55 314.53 453.69 304.6 463.64 273.3 463.64 294.36 449.48 294.4 440.06 289.61 440.11 277.18 450.22 262.2 430.73 268.64 419.75 229.42 399.23 218.97 410.3 219.3 396.72 232.84 392.59"/></g><g id="HEAD35"><polygon class="cls-38" points="339.19 454.35 314.53 432.55 256.79 404.42 256.82 394.62 281.06 394.71 339.08 442.49 339.19 454.35"/></g><g id="HEAD36"><polygon class="cls-39" points="314.53 432.55 339.19 454.35 318.55 481.76 257.41 482.09 257.41 470.53 271.65 470.53 271.65 463.6 273.3 463.64 304.6 463.64 314.53 453.69 314.53 432.55"/></g><g id="HEAD37"><polygon class="cls-40" points="294.4 440.06 289.61 440.11 277.18 450.22 267.77 454.99 236.41 454.99 228.59 443.99 209.06 444.11 214.51 450.72 227.64 450.72 235.46 463.75 273.3 463.64 294.36 449.48 294.4 440.06"/></g><g id="HEAD38"><polygon class="cls-41" points="266.37 423.62 229.46 410.38 218.97 410.3 229.42 399.23 268.64 419.75 266.37 423.62"/></g><g id="HEAD39"><polygon class="cls-42" points="266.37 423.62 262.2 430.73 257.57 430.73 257.41 424.49 254.52 424.49 254.52 427.56 251.55 427.6 241.56 436.76 230.66 437.01 230.16 430.65 240.56 430.53 237.22 417.4 227.56 417.4 222.15 415.95 218.97 415.95 218.97 410.3 229.46 410.38 266.37 423.62"/></g><g id="HEAD40"><polygon class="cls-43" points="254.52 424.49 254.52 433.71 248.14 444.01 228.59 443.99 236.41 454.99 267.77 454.99 277.18 450.22 262.2 430.73 257.57 430.73 257.41 424.49 254.52 424.49"/></g><g id="HEAD41"><polygon class="cls-41" points="254.52 427.56 251.55 427.6 241.56 436.76 230.66 437.01 230.16 430.65 227.06 420.56 227.06 444 248.14 444.01 254.52 433.71 254.52 427.56"/></g><g id="HEAD42"><polygon class="cls-44" points="227.06 420.56 230.16 430.65 240.56 430.53 237.22 417.4 227.56 417.4 227.06 417.27 227.06 420.56"/></g><g id="HEAD43"><polygon class="cls-45" points="227.06 417.27 226.26 417.05 226.26 419.7 209.06 437.01 209.06 444.11 227.06 444 227.06 417.27"/></g><g id="HEAD44"><polygon class="cls-41" points="226.26 417.05 226.26 419.7 209.06 437.01 209.06 444.11 197.26 453.98 197.34 440.15 222.15 415.95 226.26 417.05"/></g></svg>